# xmcd
#
# Track frame offsets:
#	150
#	17589
#	32702
#	48810
#	65001
#	79176
#	96899
#	111342
#	128632
#	144118
#	161185
#	177537
#	195262
#	211767
#	228179
#	240747
#	252345
#	265982
#	279543
#	295562
#
# Disc length: 4121 seconds
#
# Revision: 1
# Processed by: cddbd v1.5.2PL0 Copyright (c) Steve Scherf et al.
# Submitted via: audiograbber 1.83.01
#
DISCID=14101714
DTITLE=Various Artist - Das Beste aus der Superhitparade der Volksmusik CD2
DYEAR=2007
DGENRE=Volksmusik
TTITLE0=Schürzenjäger - Tu's jetzt
TTITLE1=Mara Kayser - Morgensterne schweigen
TTITLE2=Nockalm Quintett - Spiel nie mit dem Feuer
TTITLE3=Gaby Albrecht - Sehnuchtsmelodie
TTITLE4=Patrick Lindner - Soviel Liebe in dir
TTITLE5=Francine Jordi - Tanz, Alexis tanz
TTITLE6=Uwe Busse - Jahrmarkt der Träume
TTITLE7=Geraldine Olivier - Bitte tanz doch noch einmal mit mir
TTITLE8=Oliver Thomas - Mädchen sind was wunderbares
TTITLE9=Stefanie Hertel and Stefan Mross - Fernando (... und der Himmel war zum G
TTITLE9=reifen nah)
TTITLE10=Maxi Arland - Keine Liebe ohne Tränen
TTITLE11=Captain Cook und seine singenden Saxophone - Billy Vaughn Medley
TTITLE12=Marianne and Michael - Unser Land
TTITLE13=Oswald Sattler and Jantje Smit - Wenn der Traum von Liebe erwacht
TTITLE14=Eberhard Hertel - Die Sterne am Himmel
TTITLE15=Henry Arland and Söhne - Cielito Lindo
TTITLE16=Axel Becker - Weine keine Träne um mich, Bella Maria
TTITLE17=Vreni and Rudi - Ein liebes Wort
TTITLE18=Jantje Smit - Und diese Rosen sind für dich, liebe Mamatschi
TTITLE19=Katharina Herz and Thorsten Benkenstein - Addio
EXTD=
EXTT0=
EXTT1=
EXTT2=
EXTT3=
EXTT4=
EXTT5=
EXTT6=
EXTT7=
EXTT8=
EXTT9=
EXTT10=
EXTT11=
EXTT12=
EXTT13=
EXTT14=
EXTT15=
EXTT16=
EXTT17=
EXTT18=
EXTT19=
PLAYORDER=
